<svg xmlns="http://www.w3.org/2000/svg" xmlns:xlink="http://www.w3.org/1999/xlink" width="2000" zoomAndPan="magnify" viewBox="0 0 1500 1499.999933" height="2000" preserveAspectRatio="xMidYMid meet" version="1.2"><defs><clipPath id="aad2a6fe08"><path d="M 334 662 L 1166 662 L 1166 1145.78125 L 334 1145.78125 Z M 334 662 "/></clipPath><clipPath id="64ceb47d52"><path d="M 439 272.574219 L 1061 272.574219 L 1061 553.953125 L 439 553.953125 Z M 439 272.574219 "/></clipPath><clipPath id="21694949ea"><path d="M 757.257812 275.75 L 1059.46875 546.929688 C 1060.621094 547.964844 1061.015625 549.597656 1060.464844 551.042969 C 1059.910156 552.488281 1058.523438 553.441406 1056.976562 553.441406 L 443.023438 553.441406 C 441.476562 553.441406 440.089844 552.488281 439.535156 551.042969 C 438.984375 549.597656 439.378906 547.964844 440.53125 546.929688 L 742.742188 275.75 C 746.871094 272.046875 753.128906 272.046875 757.257812 275.75 Z M 757.257812 275.75 "/></clipPath><clipPath id="0dc4f22800"><path d="M 1003.230469 937.296875 L 1066.726562 937.296875 L 1066.726562 1000.796875 L 1003.230469 1000.796875 Z M 1003.230469 937.296875 "/></clipPath><clipPath id="bb05ef633d"><path d="M 1034.976562 937.296875 C 1017.445312 937.296875 1003.230469 951.511719 1003.230469 969.046875 C 1003.230469 986.582031 1017.445312 1000.796875 1034.976562 1000.796875 C 1052.511719 1000.796875 1066.726562 986.582031 1066.726562 969.046875 C 1066.726562 951.511719 1052.511719 937.296875 1034.976562 937.296875 Z M 1034.976562 937.296875 "/></clipPath></defs><g id="763ca4b577"><g clip-rule="nonzero" clip-path="url(#aad2a6fe08)"><path style=" stroke:none;fill-rule:nonzero;fill:#000000;fill-opacity:1;" d="M 1147.480469 665.964844 C 1137.320312 665.964844 1129.082031 674.203125 1129.082031 684.367188 L 1129.082031 1093.589844 C 1129.082031 1101.761719 1123.652344 1108.664062 1117.238281 1108.664062 L 382.71875 1108.664062 C 376.296875 1108.664062 370.875 1101.761719 370.875 1093.589844 L 370.875 680.851562 C 370.875 670.691406 362.636719 662.453125 352.472656 662.453125 C 342.308594 662.453125 334.066406 670.691406 334.066406 680.851562 L 334.066406 1093.589844 C 334.066406 1122.195312 355.894531 1145.46875 382.71875 1145.46875 L 1117.238281 1145.46875 C 1144.0625 1145.46875 1165.882812 1122.195312 1165.882812 1093.589844 L 1165.882812 684.367188 C 1165.882812 674.203125 1157.644531 665.964844 1147.480469 665.964844 "/></g><path style=" stroke:none;fill-rule:nonzero;fill:#000000;fill-opacity:1;" d="M 1254.910156 634.210938 L 771.847656 189.023438 C 771.691406 188.875 771.527344 188.734375 771.367188 188.597656 C 758.78125 177.785156 740.71875 178.035156 728.363281 189.234375 L 245.105469 630.605469 C 237.597656 637.460938 237.070312 649.097656 243.925781 656.605469 C 250.78125 664.113281 262.417969 664.640625 269.925781 657.78125 L 750.203125 219.128906 L 1229.96875 661.277344 C 1233.507812 664.542969 1237.976562 666.152344 1242.433594 666.152344 C 1247.398438 666.152344 1252.347656 664.15625 1255.972656 660.21875 C 1262.859375 652.746094 1262.382812 641.101562 1254.910156 634.210938 "/><g style="fill:#134688;fill-opacity:1;"><g transform="translate(623.71222, 1098.303074)"><path style="stroke:none" d="M 108.953125 -435.828125 L 370.453125 -435.828125 C 386.429688 -435.828125 401.046875 -431.921875 414.296875 -424.109375 C 427.554688 -416.304688 438.085938 -405.773438 445.890625 -392.515625 C 453.703125 -379.253906 457.609375 -364.632812 457.609375 -348.65625 L 457.609375 0 L 370.453125 0 L 370.453125 -174.328125 L 108.953125 -174.328125 L 108.953125 0 L 21.796875 0 L 21.796875 -348.65625 C 21.796875 -364.632812 25.695312 -379.253906 33.5 -392.515625 C 41.3125 -405.773438 51.84375 -416.304688 65.09375 -424.109375 C 78.351562 -431.921875 92.972656 -435.828125 108.953125 -435.828125 Z M 108.953125 -348.65625 L 108.953125 -261.5 L 370.453125 -261.5 L 370.453125 -348.65625 Z M 108.953125 -348.65625 "/></g></g><g style="fill:#134688;fill-opacity:1;"><g transform="translate(17.138397, 1296.278025)"><path style="stroke:none" d="M 107.625 -102.5 L 107.625 -82 L 66.625 -82 L 66.625 0 L 46.125 0 L 46.125 -82 L 5.125 -82 L 5.125 -102.5 Z M 107.625 -102.5 "/></g></g><g style="fill:#134688;fill-opacity:1;"><g transform="translate(129.884935, 1296.278025)"><path style="stroke:none" d="M 87.125 -61.5 L 87.125 -102.5 L 107.625 -102.5 L 107.625 0 L 87.125 0 L 87.125 -41 L 25.625 -41 L 25.625 0 L 5.125 0 L 5.125 -102.5 L 25.625 -102.5 L 25.625 -61.5 Z M 87.125 -61.5 "/></g></g><g style="fill:#134688;fill-opacity:1;"><g transform="translate(242.631473, 1296.278025)"><path style="stroke:none" d="M 107.625 -102.5 L 107.625 -82 L 25.625 -82 L 25.625 -61.5 L 107.625 -61.5 L 107.625 -41 L 25.625 -41 L 25.625 -20.5 L 107.625 -20.5 L 107.625 0 L 25.625 0 C 21.863281 0 18.425781 -0.914062 15.3125 -2.75 C 12.195312 -4.59375 9.71875 -7.070312 7.875 -10.1875 C 6.039062 -13.300781 5.125 -16.738281 5.125 -20.5 L 5.125 -82 C 5.125 -85.757812 6.039062 -89.195312 7.875 -92.3125 C 9.71875 -95.425781 12.195312 -97.898438 15.3125 -99.734375 C 18.425781 -101.578125 21.863281 -102.5 25.625 -102.5 Z M 107.625 -102.5 "/></g></g><g style="fill:#134688;fill-opacity:1;"><g transform="translate(355.378011, 1296.278025)"><path style="stroke:none" d=""/></g></g><g style="fill:#134688;fill-opacity:1;"><g transform="translate(411.751279, 1296.278025)"><path style="stroke:none" d="M 25.625 -102.5 L 87.125 -102.5 C 90.882812 -102.5 94.320312 -101.578125 97.4375 -99.734375 C 100.550781 -97.898438 103.023438 -95.425781 104.859375 -92.3125 C 106.703125 -89.195312 107.625 -85.757812 107.625 -82 L 107.625 0 L 87.125 0 L 87.125 -41 L 25.625 -41 L 25.625 0 L 5.125 0 L 5.125 -82 C 5.125 -85.757812 6.039062 -89.195312 7.875 -92.3125 C 9.71875 -95.425781 12.195312 -97.898438 15.3125 -99.734375 C 18.425781 -101.578125 21.863281 -102.5 25.625 -102.5 Z M 25.625 -82 L 25.625 -61.5 L 87.125 -61.5 L 87.125 -82 Z M 25.625 -82 "/></g></g><g style="fill:#134688;fill-opacity:1;"><g transform="translate(524.497817, 1296.278025)"><path style="stroke:none" d="M 107.625 0 L 25.625 0 C 21.863281 0 18.425781 -0.914062 15.3125 -2.75 C 12.195312 -4.59375 9.71875 -7.070312 7.875 -10.1875 C 6.039062 -13.300781 5.125 -16.738281 5.125 -20.5 L 5.125 -102.5 L 25.625 -102.5 L 25.625 -20.5 L 107.625 -20.5 Z M 107.625 0 "/></g></g><g style="fill:#134688;fill-opacity:1;"><g transform="translate(637.244355, 1296.278025)"><path style="stroke:none" d="M 25.625 -102.5 L 87.125 -102.5 C 90.882812 -102.5 94.320312 -101.578125 97.4375 -99.734375 C 100.550781 -97.898438 103.023438 -95.425781 104.859375 -92.3125 C 106.703125 -89.195312 107.625 -85.757812 107.625 -82 L 107.625 0 L 87.125 0 L 87.125 -41 L 25.625 -41 L 25.625 0 L 5.125 0 L 5.125 -82 C 5.125 -85.757812 6.039062 -89.195312 7.875 -92.3125 C 9.71875 -95.425781 12.195312 -97.898438 15.3125 -99.734375 C 18.425781 -101.578125 21.863281 -102.5 25.625 -102.5 Z M 25.625 -82 L 25.625 -61.5 L 87.125 -61.5 L 87.125 -82 Z M 25.625 -82 "/></g></g><g style="fill:#134688;fill-opacity:1;"><g transform="translate(749.990894, 1296.278025)"><path style="stroke:none" d="M 107.625 -82 L 107.625 -61.5 C 107.625 -57.738281 106.703125 -54.300781 104.859375 -51.1875 C 103.023438 -48.070312 100.550781 -45.59375 97.4375 -43.75 C 94.320312 -41.914062 90.882812 -41 87.125 -41 L 66.625 -41 L 87.125 -20.5 L 107.625 -20.5 L 107.625 0 L 83.03125 0 C 80.125 0 77.644531 -1.023438 75.59375 -3.078125 L 37.671875 -41 L 25.625 -41 L 25.625 0 L 5.125 0 L 5.125 -102.5 L 87.125 -102.5 C 90.882812 -102.5 94.320312 -101.578125 97.4375 -99.734375 C 100.550781 -97.898438 103.023438 -95.425781 104.859375 -92.3125 C 106.703125 -89.195312 107.625 -85.757812 107.625 -82 Z M 87.125 -82 L 25.625 -82 L 25.625 -61.5 L 87.125 -61.5 Z M 87.125 -82 "/></g></g><g style="fill:#134688;fill-opacity:1;"><g transform="translate(862.737432, 1296.278025)"><path style="stroke:none" d="M 25.625 -102.5 L 87.125 -102.5 C 90.882812 -102.5 94.320312 -101.578125 97.4375 -99.734375 C 100.550781 -97.898438 103.023438 -95.425781 104.859375 -92.3125 C 106.703125 -89.195312 107.625 -85.757812 107.625 -82 L 107.625 0 L 87.125 0 L 87.125 -82 L 66.625 -82 L 66.625 0 L 46.125 0 L 46.125 -82 L 25.625 -82 L 25.625 0 L 5.125 0 L 5.125 -82 C 5.125 -85.757812 6.039062 -89.195312 7.875 -92.3125 C 9.71875 -95.425781 12.195312 -97.898438 15.3125 -99.734375 C 18.425781 -101.578125 21.863281 -102.5 25.625 -102.5 Z M 25.625 -102.5 "/></g></g><g style="fill:#134688;fill-opacity:1;"><g transform="translate(975.48397, 1296.278025)"><path style="stroke:none" d=""/></g></g><g style="fill:#134688;fill-opacity:1;"><g transform="translate(1031.857238, 1296.278025)"><path style="stroke:none" d="M 107.625 -102.5 L 107.625 -82 L 66.625 -82 L 66.625 0 L 46.125 0 L 46.125 -82 L 5.125 -82 L 5.125 -102.5 Z M 107.625 -102.5 "/></g></g><g style="fill:#134688;fill-opacity:1;"><g transform="translate(1144.603776, 1296.278025)"><path style="stroke:none" d="M 107.625 -102.5 L 107.625 -82 L 25.625 -82 L 25.625 -61.5 L 107.625 -61.5 L 107.625 -41 L 25.625 -41 L 25.625 -20.5 L 107.625 -20.5 L 107.625 0 L 25.625 0 C 21.863281 0 18.425781 -0.914062 15.3125 -2.75 C 12.195312 -4.59375 9.71875 -7.070312 7.875 -10.1875 C 6.039062 -13.300781 5.125 -16.738281 5.125 -20.5 L 5.125 -82 C 5.125 -85.757812 6.039062 -89.195312 7.875 -92.3125 C 9.71875 -95.425781 12.195312 -97.898438 15.3125 -99.734375 C 18.425781 -101.578125 21.863281 -102.5 25.625 -102.5 Z M 107.625 -102.5 "/></g></g><g style="fill:#134688;fill-opacity:1;"><g transform="translate(1257.350314, 1296.278025)"><path style="stroke:none" d="M 25.625 -102.5 L 87.125 -102.5 C 90.882812 -102.5 94.320312 -101.578125 97.4375 -99.734375 C 100.550781 -97.898438 103.023438 -95.425781 104.859375 -92.3125 C 106.703125 -89.195312 107.625 -85.757812 107.625 -82 L 107.625 0 L 87.125 0 L 87.125 -41 L 25.625 -41 L 25.625 0 L 5.125 0 L 5.125 -82 C 5.125 -85.757812 6.039062 -89.195312 7.875 -92.3125 C 9.71875 -95.425781 12.195312 -97.898438 15.3125 -99.734375 C 18.425781 -101.578125 21.863281 -102.5 25.625 -102.5 Z M 25.625 -82 L 25.625 -61.5 L 87.125 -61.5 L 87.125 -82 Z M 25.625 -82 "/></g></g><g style="fill:#134688;fill-opacity:1;"><g transform="translate(1370.096852, 1296.278025)"><path style="stroke:none" d="M 25.625 -102.5 L 87.125 -102.5 C 90.882812 -102.5 94.320312 -101.578125 97.4375 -99.734375 C 100.550781 -97.898438 103.023438 -95.425781 104.859375 -92.3125 C 106.703125 -89.195312 107.625 -85.757812 107.625 -82 L 107.625 0 L 87.125 0 L 87.125 -82 L 66.625 -82 L 66.625 0 L 46.125 0 L 46.125 -82 L 25.625 -82 L 25.625 0 L 5.125 0 L 5.125 -82 C 5.125 -85.757812 6.039062 -89.195312 7.875 -92.3125 C 9.71875 -95.425781 12.195312 -97.898438 15.3125 -99.734375 C 18.425781 -101.578125 21.863281 -102.5 25.625 -102.5 Z M 25.625 -102.5 "/></g></g><g style="fill:#000000;fill-opacity:1;"><g transform="translate(217.493307, 1114.041108)"><path style="stroke:none" d="M 304.21875 -498.65625 L 304.21875 -447.0625 L 182.53125 -447.0625 L 182.53125 0 L 126.984375 0 L 126.984375 -447.0625 L 6.609375 -447.0625 L 6.609375 -498.65625 Z M 304.21875 -498.65625 "/></g></g><path style="fill:none;stroke-width:91;stroke-linecap:round;stroke-linejoin:miter;stroke:#000000;stroke-opacity:1;stroke-miterlimit:4;" d="M 45.500837 45.497768 L 645.464431 45.497768 " transform="matrix(0.75,0,0,0.75,105.487656,604.173552)"/><path style="fill:none;stroke-width:60;stroke-linecap:round;stroke-linejoin:miter;stroke:#000000;stroke-opacity:1;stroke-miterlimit:4;" d="M 30.000324 29.999406 L 260.494064 29.999406 " transform="matrix(0.748749,0,0,0.748749,1091.560715,385.776247)"/><path style="fill:none;stroke-width:64;stroke-linecap:butt;stroke-linejoin:miter;stroke:#000000;stroke-opacity:1;stroke-miterlimit:4;" d="M 0.000511695 32.001072 L 268.005743 32.001072 " transform="matrix(0,-0.75,0.75,0,1176.495292,609.277728)"/><g clip-rule="nonzero" clip-path="url(#64ceb47d52)"><g clip-rule="nonzero" clip-path="url(#21694949ea)"><path style=" stroke:none;fill-rule:nonzero;fill:#000000;fill-opacity:1;" d="M 433.273438 269.238281 L 1067.210938 269.238281 L 1067.210938 553.953125 L 433.273438 553.953125 Z M 433.273438 269.238281 "/></g></g><g clip-rule="nonzero" clip-path="url(#0dc4f22800)"><g clip-rule="nonzero" clip-path="url(#bb05ef633d)"><path style=" stroke:none;fill-rule:nonzero;fill:#222222;fill-opacity:1;" d="M 1003.230469 937.296875 L 1066.726562 937.296875 L 1066.726562 1000.796875 L 1003.230469 1000.796875 Z M 1003.230469 937.296875 "/></g></g></g></svg>